<?xml version="1.0" encoding="UTF-8" standalone="no"?>
<!-- Created with Inkscape (http://www.inkscape.org/) -->

<svg
   width="32"
   height="128"
   viewBox="0 0 8.4666665 33.866666"
   version="1.1"
   id="svg1"
   sodipodi:docname="mbok-rondo.svg"
   inkscape:version="1.4.3 (0d15f75042, 2025-12-25)"
   xml:space="preserve"
   inkscape:export-filename="mbok-rondo.png"
   inkscape:export-xdpi="960"
   inkscape:export-ydpi="960"
   xmlns:inkscape="http://www.inkscape.org/namespaces/inkscape"
   xmlns:sodipodi="http://sodipodi.sourceforge.net/DTD/sodipodi-0.dtd"
   xmlns="http://www.w3.org/2000/svg"
   xmlns:svg="http://www.w3.org/2000/svg"><sodipodi:namedview
     id="namedview1"
     pagecolor="#ffffff"
     bordercolor="#000000"
     borderopacity="0.25"
     inkscape:showpageshadow="2"
     inkscape:pageopacity="0.0"
     inkscape:pagecheckerboard="0"
     inkscape:deskcolor="#d1d1d1"
     inkscape:document-units="mm"
     showguides="false"
     inkscape:zoom="2.8284273"
     inkscape:cx="27.400387"
     inkscape:cy="77.958519"
     inkscape:window-width="1920"
     inkscape:window-height="1026"
     inkscape:window-x="0"
     inkscape:window-y="0"
     inkscape:window-maximized="1"
     inkscape:current-layer="layer1"
     showgrid="true"><inkscape:grid
       id="grid13"
       units="px"
       originx="0"
       originy="0"
       spacingx="8.4666665"
       spacingy="8.4666665"
       empcolor="#0099e5"
       empopacity="0.30196078"
       color="#0099e5"
       opacity="0.14901961"
       empspacing="5"
       enabled="true"
       visible="true" /></sodipodi:namedview><defs
     id="defs1" /><g
     inkscape:label="front"
     inkscape:groupmode="layer"
     id="layer1"><ellipse
       style="fill:#808080;fill-opacity:1;stroke:#686868;stroke-width:0.065;stroke-dasharray:none;stroke-opacity:1"
       id="path4"
       cx="4.2333455"
       cy="1.3984489"
       rx="0.63243628"
       ry="0.56721413" /><path
       id="rect10"
       style="fill:#803300;stroke:#552200;stroke-width:0.065;stroke-dasharray:none"
       d="m 3.6913008,4.9961125 h 1.0840648 c 0.2708973,0 0.4889843,0.218087 0.4889843,0.4889843 -0.05703,0.701173 0.046999,1.5633217 -0.4889843,1.9832028 -0.2844616,0.222843 -0.7996032,0.222843 -1.0840648,0 C 3.155318,7.0484185 3.2023166,6.1366196 3.2023166,5.4850968 c 0,-0.2708973 0.218087,-0.4889843 0.4889842,-0.4889843 z"
       sodipodi:nodetypes="sssssss" /><ellipse
       style="fill:#e9c6af;fill-opacity:1;stroke:#917c6f;stroke-width:0.065;stroke-dasharray:none;stroke-opacity:1"
       id="path5"
       cx="4.2333336"
       cy="4.1832523"
       rx="1.2502679"
       ry="1.4100465" /><ellipse
       style="fill:#803300;fill-opacity:1;stroke:#552200;stroke-width:0.065;stroke-dasharray:none;stroke-opacity:1"
       id="ellipse11"
       cx="4.1754603"
       cy="5.7303238"
       rx="0.29950607"
       ry="1.0992789"
       transform="rotate(-15)"
       inkscape:transform-center-x="0.020807871"
       inkscape:transform-center-y="0.86352604" /><path
       id="ellipse8"
       style="fill:#803300;fill-opacity:1;stroke:#552200;stroke-width:0.065;stroke-dasharray:none;stroke-opacity:1"
       d="M 3.0942247,3.6071966 A 1.2502678,1.4100464 0 0 0 2.9830213,4.1832014 1.2502678,1.4100464 0 0 0 4.2331514,5.5932319 1.2502678,1.4100464 0 0 0 5.4836451,4.1832014 1.2502678,1.4100464 0 0 0 5.3724417,3.6071966 1.6026278,0.99047856 0 0 1 4.2331514,3.9011952 1.6026278,0.99047856 0 0 1 3.0942247,3.6071966 Z" /><ellipse
       style="fill:#803300;fill-opacity:1;stroke:#552200;stroke-width:0.065;stroke-dasharray:none;stroke-opacity:1"
       id="ellipse10"
       cx="-4.0027122"
       cy="3.5389879"
       rx="0.29950607"
       ry="1.0992789"
       transform="matrix(-0.96592583,-0.25881905,-0.25881905,0.96592583,0,0)"
       inkscape:transform-center-x="-0.020808083"
       inkscape:transform-center-y="0.86352587" /><path
       id="path9"
       style="fill:#803300;fill-opacity:1;stroke:#552200;stroke-width:0.065;stroke-dasharray:none;stroke-opacity:1"
       d="m 3.6706374,2.9240371 c -5.2e-5,1.029055 -0.078828,2.3072168 0.2352297,2.9691426 C 3.7190713,5.8818081 3.5436804,6.0014769 3.3880832,5.9084278 2.9910521,5.6709986 2.9829928,4.7215861 2.9830657,4.1832526 2.9830501,3.6507672 3.249011,3.1636876 3.6706374,2.9240371 Z"
       sodipodi:nodetypes="ccscc" /><ellipse
       style="fill:#e9c6af;fill-opacity:1;stroke:#917c6f;stroke-width:0.065;stroke-dasharray:none;stroke-opacity:1"
       id="ellipse12"
       cx="-5.7816505"
       cy="5.6308441"
       rx="0.23329031"
       ry="0.31313166"
       transform="scale(-1,1)" /><path
       id="ellipse9"
       style="fill:#803300;fill-opacity:1;stroke:#552200;stroke-width:0.065;stroke-dasharray:none;stroke-opacity:1"
       d="m 4.7960294,2.9240376 c 5.2e-5,1.029055 0.078828,2.3072168 -0.2352297,2.9691427 0.1867959,-0.011372 0.3621867,0.1082971 0.517784,0.015248 C 5.4756147,5.6709991 5.483674,4.7215867 5.4836011,4.1832531 5.4836168,3.6507677 5.2176558,3.1636882 4.7960294,2.9240376 Z"
       sodipodi:nodetypes="ccscc" /><circle
       style="fill:#e9c6af;stroke:#917c6f;stroke-width:0.065;stroke-dasharray:none"
       id="path1"
       cx="4.2333336"
       cy="2.3474388"
       r="1.0705168" /><path
       id="path2"
       style="fill:#808080;stroke:#686868;stroke-width:0.065;stroke-dasharray:none;stroke-opacity:1"
       d="M 4.2333442,1.216863 C 4.1635592,1.216814 4.0939039,1.222903 4.0251845,1.235051 3.4568151,1.335923 3.0426746,1.8299611 3.04259,2.4072123 c -1.4e-6,0.00108 -1.4e-6,0.00216 0,0.00323 C 3.5478287,2.3604761 3.9915335,1.8098804 4.2360328,1.8042352 4.4805321,1.7985901 4.9219084,2.3471181 5.424102,2.3971048 5.418384,1.7435579 4.8869195,1.2167838 4.2333442,1.216863 Z"
       sodipodi:nodetypes="ccccccc" /><ellipse
       style="fill:#e9c6af;fill-opacity:1;stroke:#917c6f;stroke-width:0.065;stroke-dasharray:none;stroke-opacity:1"
       id="path10"
       cx="2.6850162"
       cy="5.6308441"
       rx="0.23329031"
       ry="0.31313166" /><circle
       style="fill:#917c6f;fill-opacity:1;stroke:#917c6f;stroke-width:0.065;stroke-dasharray:none;stroke-opacity:1"
       id="path12"
       cx="3.8850634"
       cy="2.5322616"
       r="0.10426896" /><circle
       style="fill:#917c6f;fill-opacity:1;stroke:#917c6f;stroke-width:0.065;stroke-dasharray:none;stroke-opacity:1"
       id="circle12"
       cx="4.5816031"
       cy="2.5322616"
       r="0.10426896" /><path
       id="path13"
       style="fill:#917c6f;fill-opacity:1;stroke:#917c6f;stroke-width:0.065;stroke-dasharray:none;stroke-opacity:1"
       d="m 3.8384415,2.9007662 a 0.40001968,0.22529842 0 0 0 -0.00535,0.036142 0.40001968,0.22529842 0 0 0 0.4002408,0.2255536 0.40001968,0.22529842 0 0 0 0.4002408,-0.2255536 0.40001968,0.22529842 0 0 0 -0.00535,-0.036142 z" /><path
       id="rect13"
       style="fill:#ff5555;stroke:#800000;stroke-width:0.065;stroke-dasharray:none"
       d="m 4.1210048,2.9739135 h 0.2473741 c 0.023775,0 0.035523,0.020319 0.042917,0.042916 0.01745,0.053323 0.087807,0.092802 0.097985,0.1340332 0.089461,0.3624682 -0.2155267,0.2828815 -0.3139336,0.05539 -0.025198,-0.058249 -0.1172585,-0.1167336 -0.1172585,-0.1894229 0,-0.023776 0.01914,-0.042916 0.042916,-0.042916 z"
       sodipodi:nodetypes="csssssc" /></g><g
     inkscape:label="right"
     inkscape:groupmode="layer"
     id="g28"
     transform="translate(2.2252401e-7,8.4666671)"><ellipse
       style="fill:#808080;fill-opacity:1;stroke:#686868;stroke-width:0.065;stroke-dasharray:none;stroke-opacity:1"
       id="ellipse21"
       cx="4.2333455"
       cy="1.3984489"
       rx="0.63243628"
       ry="0.56721413" /><path
       id="path21"
       style="fill:#803300;stroke:#552200;stroke-width:0.065;stroke-dasharray:none"
       d="m 3.6913008,4.9961125 h 1.0840648 c 0.2708973,0 0.4889843,0.218087 0.4889843,0.4889843 -0.05703,0.701173 0.046999,1.5633217 -0.4889843,1.9832028 -0.2844616,0.222843 -0.7996032,0.222843 -1.0840648,0 C 3.155318,7.0484185 3.2023166,6.1366196 3.2023166,5.4850968 c 0,-0.2708973 0.218087,-0.4889843 0.4889842,-0.4889843 z"
       sodipodi:nodetypes="sssssss" /><ellipse
       style="fill:#e9c6af;fill-opacity:1;stroke:#917c6f;stroke-width:0.065;stroke-dasharray:none;stroke-opacity:1"
       id="ellipse22"
       cx="4.2333336"
       cy="4.1832523"
       rx="1.2502679"
       ry="1.4100465" /><ellipse
       style="fill:#803300;fill-opacity:1;stroke:#552200;stroke-width:0.065;stroke-dasharray:none;stroke-opacity:1"
       id="ellipse23"
       cx="4.1754603"
       cy="5.7303238"
       rx="0.29950607"
       ry="1.0992789"
       transform="rotate(-15)"
       inkscape:transform-center-x="0.020807871"
       inkscape:transform-center-y="0.86352604" /><path
       id="path23"
       style="fill:#803300;fill-opacity:1;stroke:#552200;stroke-width:0.065;stroke-dasharray:none;stroke-opacity:1"
       d="M 3.0942247,3.6071966 A 1.2502678,1.4100464 0 0 0 2.9830213,4.1832014 1.2502678,1.4100464 0 0 0 4.2331514,5.5932319 1.2502678,1.4100464 0 0 0 5.4836451,4.1832014 1.2502678,1.4100464 0 0 0 5.3724417,3.6071966 1.6026278,0.99047856 0 0 1 4.2331514,3.9011952 1.6026278,0.99047856 0 0 1 3.0942247,3.6071966 Z" /><path
       id="path24"
       style="fill:#803300;fill-opacity:1;stroke:#552200;stroke-width:0.065;stroke-dasharray:none;stroke-opacity:1"
       d="m 3.6706374,2.9240371 c -5.2e-5,1.029055 -0.078828,2.3072168 0.2352297,2.9691426 C 3.7190713,5.8818081 3.5436804,6.0014769 3.3880832,5.9084278 2.9910521,5.6709986 2.9829928,4.7215861 2.9830657,4.1832526 2.9830501,3.6507672 3.249011,3.1636876 3.6706374,2.9240371 Z"
       sodipodi:nodetypes="ccscc" /><ellipse
       style="fill:#e9c6af;fill-opacity:1;stroke:#917c6f;stroke-width:0.065;stroke-dasharray:none;stroke-opacity:1"
       id="ellipse25"
       cx="-5.7816505"
       cy="5.6308441"
       rx="0.23329031"
       ry="0.31313166"
       transform="scale(-1,1)" /><path
       id="path25"
       style="fill:#803300;fill-opacity:1;stroke:#552200;stroke-width:0.065;stroke-dasharray:none;stroke-opacity:1"
       d="m 4.7960294,2.9240376 c 5.2e-5,1.029055 0.078828,2.3072168 -0.2352297,2.9691427 0.1867959,-0.011372 0.3621867,0.1082971 0.517784,0.015248 C 5.4756147,5.6709991 5.483674,4.7215867 5.4836011,4.1832531 5.4836168,3.6507677 5.2176558,3.1636882 4.7960294,2.9240376 Z"
       sodipodi:nodetypes="ccscc" /><circle
       style="fill:#e9c6af;stroke:#917c6f;stroke-width:0.065;stroke-dasharray:none"
       id="circle25"
       cx="4.2333336"
       cy="2.3474388"
       r="1.0705168" /><ellipse
       style="fill:#803300;fill-opacity:1;stroke:#552200;stroke-width:0.065;stroke-dasharray:none;stroke-opacity:1"
       id="ellipse24"
       cx="-4.0027122"
       cy="3.5389879"
       rx="0.29950607"
       ry="1.0992789"
       transform="matrix(-0.96592583,-0.25881905,-0.25881905,0.96592583,0,0)"
       inkscape:transform-center-x="-0.020808083"
       inkscape:transform-center-y="0.86352587" /><path
       id="path26"
       style="fill:#808080;stroke:#686868;stroke-width:0.065;stroke-dasharray:none;stroke-opacity:1"
       d="M 4.2333442,1.216863 C 4.1635592,1.216814 4.0939039,1.222903 4.0251845,1.235051 3.4568151,1.335923 3.0426746,1.8299611 3.04259,2.4072123 c -1.4e-6,0.00108 -1.4e-6,0.00216 0,0.00323 C 3.5478287,2.3604761 3.9915335,1.8098804 4.2360328,1.8042352 4.4805321,1.7985901 4.9219084,2.3471181 5.424102,2.3971048 5.418384,1.7435579 4.8869195,1.2167838 4.2333442,1.216863 Z"
       sodipodi:nodetypes="ccccccc" /><ellipse
       style="fill:#e9c6af;fill-opacity:1;stroke:#917c6f;stroke-width:0.065;stroke-dasharray:none;stroke-opacity:1"
       id="ellipse26"
       cx="2.6850162"
       cy="5.6308441"
       rx="0.23329031"
       ry="0.31313166" /><circle
       style="fill:#917c6f;fill-opacity:1;stroke:#917c6f;stroke-width:0.065;stroke-dasharray:none;stroke-opacity:1"
       id="circle26"
       cx="4.3469386"
       cy="2.5322616"
       r="0.10426896" /><circle
       style="fill:#917c6f;fill-opacity:1;stroke:#917c6f;stroke-width:0.065;stroke-dasharray:none;stroke-opacity:1"
       id="circle27"
       cx="5.043478"
       cy="2.5322616"
       r="0.10426896" /></g><g
     inkscape:label="left"
     inkscape:groupmode="layer"
     id="g28-6"
     transform="translate(0,16.933333)"><ellipse
       style="fill:#808080;fill-opacity:1;stroke:#686868;stroke-width:0.065;stroke-dasharray:none;stroke-opacity:1"
       id="ellipse21-9"
       cx="4.2333455"
       cy="1.3984489"
       rx="0.63243628"
       ry="0.56721413" /><path
       id="path21-1"
       style="fill:#803300;stroke:#552200;stroke-width:0.065;stroke-dasharray:none"
       d="m 3.6913008,4.9961125 h 1.0840648 c 0.2708973,0 0.4889843,0.218087 0.4889843,0.4889843 -0.05703,0.701173 0.046999,1.5633217 -0.4889843,1.9832028 -0.2844616,0.222843 -0.7996032,0.222843 -1.0840648,0 C 3.155318,7.0484185 3.2023166,6.1366196 3.2023166,5.4850968 c 0,-0.2708973 0.218087,-0.4889843 0.4889842,-0.4889843 z"
       sodipodi:nodetypes="sssssss" /><ellipse
       style="fill:#803300;fill-opacity:1;stroke:#552200;stroke-width:0.065;stroke-dasharray:none;stroke-opacity:1"
       id="ellipse24-6"
       cx="-4.0027122"
       cy="3.5389879"
       rx="0.29950607"
       ry="1.0992789"
       transform="matrix(-0.96592583,-0.25881905,-0.25881905,0.96592583,0,0)"
       inkscape:transform-center-x="-0.020808083"
       inkscape:transform-center-y="0.86352587" /><ellipse
       style="fill:#e9c6af;fill-opacity:1;stroke:#917c6f;stroke-width:0.065;stroke-dasharray:none;stroke-opacity:1"
       id="ellipse22-2"
       cx="4.2333336"
       cy="4.1832523"
       rx="1.2502679"
       ry="1.4100465" /><ellipse
       style="fill:#e9c6af;fill-opacity:1;stroke:#917c6f;stroke-width:0.065;stroke-dasharray:none;stroke-opacity:1"
       id="ellipse26-6"
       cx="2.6850162"
       cy="5.6308441"
       rx="0.23329031"
       ry="0.31313166" /><path
       id="path23-0"
       style="fill:#803300;fill-opacity:1;stroke:#552200;stroke-width:0.065;stroke-dasharray:none;stroke-opacity:1"
       d="M 3.0942247,3.6071966 A 1.2502678,1.4100464 0 0 0 2.9830213,4.1832014 1.2502678,1.4100464 0 0 0 4.2331514,5.5932319 1.2502678,1.4100464 0 0 0 5.4836451,4.1832014 1.2502678,1.4100464 0 0 0 5.3724417,3.6071966 1.6026278,0.99047856 0 0 1 4.2331514,3.9011952 1.6026278,0.99047856 0 0 1 3.0942247,3.6071966 Z" /><path
       id="path24-9"
       style="fill:#803300;fill-opacity:1;stroke:#552200;stroke-width:0.065;stroke-dasharray:none;stroke-opacity:1"
       d="m 3.6706374,2.9240371 c -5.2e-5,1.029055 -0.078828,2.3072168 0.2352297,2.9691426 C 3.7190713,5.8818081 3.5436804,6.0014769 3.3880832,5.9084278 2.9910521,5.6709986 2.9829928,4.7215861 2.9830657,4.1832526 2.9830501,3.6507672 3.249011,3.1636876 3.6706374,2.9240371 Z"
       sodipodi:nodetypes="ccscc" /><path
       id="path25-6"
       style="fill:#803300;fill-opacity:1;stroke:#552200;stroke-width:0.065;stroke-dasharray:none;stroke-opacity:1"
       d="m 4.7960294,2.9240376 c 5.2e-5,1.029055 0.078828,2.3072168 -0.2352297,2.9691427 0.1867959,-0.011372 0.3621867,0.1082971 0.517784,0.015248 C 5.4756147,5.6709991 5.483674,4.7215867 5.4836011,4.1832531 5.4836168,3.6507677 5.2176558,3.1636882 4.7960294,2.9240376 Z"
       sodipodi:nodetypes="ccscc" /><circle
       style="fill:#e9c6af;stroke:#917c6f;stroke-width:0.065;stroke-dasharray:none"
       id="circle25-0"
       cx="4.2333336"
       cy="2.3474388"
       r="1.0705168" /><ellipse
       style="fill:#803300;fill-opacity:1;stroke:#552200;stroke-width:0.065;stroke-dasharray:none;stroke-opacity:1"
       id="ellipse23-7"
       cx="4.1754603"
       cy="5.7303238"
       rx="0.29950607"
       ry="1.0992789"
       transform="rotate(-15)"
       inkscape:transform-center-x="0.020807871"
       inkscape:transform-center-y="0.86352604" /><ellipse
       style="fill:#e9c6af;fill-opacity:1;stroke:#917c6f;stroke-width:0.065;stroke-dasharray:none;stroke-opacity:1"
       id="ellipse25-3"
       cx="-5.7816505"
       cy="5.6308441"
       rx="0.23329031"
       ry="0.31313166"
       transform="scale(-1,1)" /><path
       id="path26-2"
       style="fill:#808080;stroke:#686868;stroke-width:0.065;stroke-dasharray:none;stroke-opacity:1"
       d="M 4.2333442,1.216863 C 4.1635592,1.216814 4.0939039,1.222903 4.0251845,1.235051 3.4568151,1.335923 3.0426746,1.8299611 3.04259,2.4072123 c -1.4e-6,0.00108 -1.4e-6,0.00216 0,0.00323 C 3.5478287,2.3604761 3.9915335,1.8098804 4.2360328,1.8042352 4.4805321,1.7985901 4.9219084,2.3471181 5.424102,2.3971048 5.418384,1.7435579 4.8869195,1.2167838 4.2333442,1.216863 Z"
       sodipodi:nodetypes="ccccccc" /><circle
       style="fill:#917c6f;fill-opacity:1;stroke:#917c6f;stroke-width:0.065;stroke-dasharray:none;stroke-opacity:1"
       id="circle26-1"
       cx="3.5050397"
       cy="2.5322616"
       r="0.10426896" /><circle
       style="fill:#917c6f;fill-opacity:1;stroke:#917c6f;stroke-width:0.065;stroke-dasharray:none;stroke-opacity:1"
       id="circle27-8"
       cx="4.2015791"
       cy="2.5322616"
       r="0.10426896" /></g><g
     inkscape:label="back"
     inkscape:groupmode="layer"
     id="g36"
     transform="translate(0,25.399999)"><ellipse
       style="fill:#e9c6af;fill-opacity:1;stroke:#917c6f;stroke-width:0.065;stroke-dasharray:none;stroke-opacity:1"
       id="ellipse35"
       cx="-5.7816505"
       cy="5.6308441"
       rx="0.23329031"
       ry="0.31313166"
       transform="scale(-1,1)" /><path
       id="path29"
       style="fill:#803300;stroke:#552200;stroke-width:0.065;stroke-dasharray:none"
       d="m 3.6913008,4.9961125 h 1.0840648 c 0.2708973,0 0.4889843,0.218087 0.4889843,0.4889843 -0.05703,0.701173 0.046999,1.5633217 -0.4889843,1.9832028 -0.2844616,0.222843 -0.7996032,0.222843 -1.0840648,0 C 3.155318,7.0484185 3.2023166,6.1366196 3.2023166,5.4850968 c 0,-0.2708973 0.218087,-0.4889843 0.4889842,-0.4889843 z"
       sodipodi:nodetypes="sssssss" /><ellipse
       style="fill:#803300;fill-opacity:1;stroke:#552200;stroke-width:0.065;stroke-dasharray:none;stroke-opacity:1"
       id="ellipse30"
       cx="-4.0027122"
       cy="3.5389879"
       rx="0.29950607"
       ry="1.0992789"
       transform="matrix(-0.96592583,-0.25881905,-0.25881905,0.96592583,0,0)"
       inkscape:transform-center-x="-0.020808083"
       inkscape:transform-center-y="0.86352587" /><ellipse
       style="fill:#803300;fill-opacity:1;stroke:#552200;stroke-width:0.065;stroke-dasharray:none;stroke-opacity:1"
       id="ellipse34"
       cx="4.1754603"
       cy="5.7303238"
       rx="0.29950607"
       ry="1.0992789"
       transform="rotate(-15)"
       inkscape:transform-center-x="0.020807871"
       inkscape:transform-center-y="0.86352604" /><ellipse
       style="fill:#803300;fill-opacity:1;stroke:#552200;stroke-width:0.065;stroke-dasharray:none;stroke-opacity:1"
       id="ellipse31"
       cx="4.2333336"
       cy="4.1832523"
       rx="1.2502679"
       ry="1.4100465" /><ellipse
       style="fill:#e9c6af;fill-opacity:1;stroke:#917c6f;stroke-width:0.065;stroke-dasharray:none;stroke-opacity:1"
       id="ellipse32"
       cx="2.6850162"
       cy="5.6308441"
       rx="0.23329031"
       ry="0.31313166" /><circle
       style="fill:#e9c6af;stroke:#917c6f;stroke-width:0.065;stroke-dasharray:none"
       id="circle34"
       cx="4.2333336"
       cy="2.3474388"
       r="1.0705168" /><path
       id="path35"
       style="fill:#808080;stroke:#686868;stroke-width:0.065;stroke-dasharray:none;stroke-opacity:1"
       d="M 4.2333442,1.216863 C 4.1635592,1.216814 4.0939039,1.222903 4.0251845,1.235051 3.4568151,1.335923 3.0426746,1.8299611 3.04259,2.4072123 c -1.4e-6,0.00108 -1.4e-6,0.00216 0,0.00323 C 3.3446515,2.944306 5.2418852,2.7063676 5.424102,2.3971048 5.418384,1.7435579 4.8869195,1.2167838 4.2333442,1.216863 Z"
       sodipodi:nodetypes="cccccc" /><ellipse
       style="fill:#808080;fill-opacity:1;stroke:#686868;stroke-width:0.065;stroke-dasharray:none;stroke-opacity:1"
       id="ellipse29"
       cx="4.2333455"
       cy="1.3984489"
       rx="0.63243628"
       ry="0.56721413" /></g></svg>
